<?xml version="1.0" encoding="UTF-8"?>
<!DOCTYPE svg PUBLIC "-//W3C//DTD SVG 1.1//EN" "http://www.w3.org/Graphics/SVG/1.1/DTD/svg11.dtd">
<svg version="1.2" width="280mm" height="157.5mm" viewBox="0 0 28000 15750" preserveAspectRatio="xMidYMid" fill-rule="evenodd" stroke-width="28.222" stroke-linejoin="round" xmlns="http://www.w3.org/2000/svg" xmlns:ooo="http://xml.openoffice.org/svg/export" xmlns:xlink="http://www.w3.org/1999/xlink" xmlns:presentation="http://sun.com/xmlns/staroffice/presentation" xmlns:smil="http://www.w3.org/2001/SMIL20/" xmlns:anim="urn:oasis:names:tc:opendocument:xmlns:animation:1.0" xml:space="preserve">
 <defs class="ClipPathGroup">
  <clipPath id="presentation_clip_path" clipPathUnits="userSpaceOnUse">
   <rect x="0" y="0" width="28000" height="15750"/>
  </clipPath>
  <clipPath id="presentation_clip_path_shrink" clipPathUnits="userSpaceOnUse">
   <rect x="28" y="15" width="27944" height="15719"/>
  </clipPath>
 </defs>
 <defs class="TextShapeIndex">
  <g ooo:slide="id1" ooo:id-list="id3 id4 id5 id6 id7 id8 id9 id10"/>
 </defs>
 <defs class="EmbeddedBulletChars">
  <g id="bullet-char-template-57356" transform="scale(0.00048828125,-0.00048828125)">
   <path d="M 580,1141 L 1163,571 580,0 -4,571 580,1141 Z"/>
  </g>
  <g id="bullet-char-template-57354" transform="scale(0.00048828125,-0.00048828125)">
   <path d="M 8,1128 L 1137,1128 1137,0 8,0 8,1128 Z"/>
  </g>
  <g id="bullet-char-template-10146" transform="scale(0.00048828125,-0.00048828125)">
   <path d="M 174,0 L 602,739 174,1481 1456,739 174,0 Z M 1358,739 L 309,1346 659,739 1358,739 Z"/>
  </g>
  <g id="bullet-char-template-10132" transform="scale(0.00048828125,-0.00048828125)">
   <path d="M 2015,739 L 1276,0 717,0 1260,543 174,543 174,936 1260,936 717,1481 1274,1481 2015,739 Z"/>
  </g>
  <g id="bullet-char-template-10007" transform="scale(0.00048828125,-0.00048828125)">
   <path d="M 0,-2 C -7,14 -16,27 -25,37 L 356,567 C 262,823 215,952 215,954 215,979 228,992 255,992 264,992 276,990 289,987 310,991 331,999 354,1012 L 381,999 492,748 772,1049 836,1024 860,1049 C 881,1039 901,1025 922,1006 886,937 835,863 770,784 769,783 710,716 594,584 L 774,223 C 774,196 753,168 711,139 L 727,119 C 717,90 699,76 672,76 641,76 570,178 457,381 L 164,-76 C 142,-110 111,-127 72,-127 30,-127 9,-110 8,-76 1,-67 -2,-52 -2,-32 -2,-23 -1,-13 0,-2 Z"/>
  </g>
  <g id="bullet-char-template-10004" transform="scale(0.00048828125,-0.00048828125)">
   <path d="M 285,-33 C 182,-33 111,30 74,156 52,228 41,333 41,471 41,549 55,616 82,672 116,743 169,778 240,778 293,778 328,747 346,684 L 369,508 C 377,444 397,411 428,410 L 1163,1116 C 1174,1127 1196,1133 1229,1133 1271,1133 1292,1118 1292,1087 L 1292,965 C 1292,929 1282,901 1262,881 L 442,47 C 390,-6 338,-33 285,-33 Z"/>
  </g>
  <g id="bullet-char-template-9679" transform="scale(0.00048828125,-0.00048828125)">
   <path d="M 813,0 C 632,0 489,54 383,161 276,268 223,411 223,592 223,773 276,916 383,1023 489,1130 632,1184 813,1184 992,1184 1136,1130 1245,1023 1353,916 1407,772 1407,592 1407,412 1353,268 1245,161 1136,54 992,0 813,0 Z"/>
  </g>
  <g id="bullet-char-template-8226" transform="scale(0.00048828125,-0.00048828125)">
   <path d="M 346,457 C 273,457 209,483 155,535 101,586 74,649 74,723 74,796 101,859 155,911 209,963 273,989 346,989 419,989 480,963 531,910 582,859 608,796 608,723 608,648 583,586 532,535 482,483 420,457 346,457 Z"/>
  </g>
  <g id="bullet-char-template-8211" transform="scale(0.00048828125,-0.00048828125)">
   <path d="M -4,459 L 1135,459 1135,606 -4,606 -4,459 Z"/>
  </g>
  <g id="bullet-char-template-61548" transform="scale(0.00048828125,-0.00048828125)">
   <path d="M 173,740 C 173,903 231,1043 346,1159 462,1274 601,1332 765,1332 928,1332 1067,1274 1183,1159 1299,1043 1357,903 1357,740 1357,577 1299,437 1183,322 1067,206 928,148 765,148 601,148 462,206 346,322 231,437 173,577 173,740 Z"/>
  </g>
 </defs>
 <g>
  <g id="id2" class="Master_Slide">
   <g id="bg-id2" class="Background"/>
   <g id="bo-id2" class="BackgroundObjects"/>
  </g>
 </g>
 <g class="SlideGroup">
  <g>
   <g id="container-id1">
    <g id="id1" class="Slide" clip-path="url(#presentation_clip_path)">
     <g class="Page">
      <defs class="SlideBackground">
       <g id="bg-id1" class="Background">
        <path fill="rgb(15,23,42)" stroke="none" d="M 13987,15736 L -13,15736 -13,-13 27986,-13 27986,15736 13987,15736 Z"/>
       </g>
      </defs>
      <g class="com.sun.star.drawing.CustomShape">
       <g id="id3">
        <rect class="BoundingBox" stroke="none" fill="none" x="4464" y="-405" width="19460" height="22155"/>
        <path fill="none" stroke="rgb(45,212,191)" d="M 12220,-404 L 11922,8062 4465,9921 11748,13339 11430,21748 16176,15462 23323,18783 19095,11507 23922,5070 16464,6929 12220,-404 12220,-404 Z"/>
       </g>
      </g>
      <g class="com.sun.star.drawing.CustomShape">
       <g id="id4">
        <rect class="BoundingBox" stroke="none" fill="none" x="3558" y="337" width="19460" height="22155"/>
        <path fill="none" stroke="rgb(45,212,191)" d="M 11314,338 L 11016,8804 3559,10663 10842,14081 10524,22490 15270,16204 22417,19525 18189,12249 23016,5812 15558,7671 11314,338 11314,338 Z"/>
       </g>
      </g>
      <g class="com.sun.star.drawing.CustomShape">
       <g id="id5">
        <rect class="BoundingBox" stroke="none" fill="none" x="2604" y="1079" width="19460" height="22155"/>
        <path fill="none" stroke="rgb(45,212,191)" d="M 10360,1080 L 10062,9546 2605,11405 9888,14823 9570,23232 14316,16946 21463,20267 17235,12991 22062,6554 14604,8413 10360,1080 10360,1080 Z"/>
       </g>
      </g>
      <g class="com.sun.star.drawing.CustomShape">
       <g id="id6">
        <rect class="BoundingBox" stroke="none" fill="none" x="1768" y="1821" width="19460" height="22155"/>
        <path fill="none" stroke="rgb(45,212,191)" d="M 9524,1822 L 9226,10288 1769,12147 9052,15565 8734,23974 13480,17688 20627,21009 16399,13733 21226,7296 13768,9155 9524,1822 9524,1822 Z"/>
       </g>
      </g>
      <g class="com.sun.star.drawing.CustomShape">
       <g id="id7">
        <rect class="BoundingBox" stroke="none" fill="none" x="24446" y="1586" width="1122" height="1122"/>
        <path fill="rgb(45,212,191)" stroke="none" d="M 25566,2147 C 25566,2245 25540,2341 25491,2426 25442,2511 25371,2582 25286,2631 25201,2680 25105,2706 25007,2706 24908,2706 24812,2680 24727,2631 24642,2582 24571,2511 24522,2426 24473,2341 24447,2245 24447,2147 24447,2048 24473,1952 24522,1867 24571,1782 24642,1711 24727,1662 24812,1613 24908,1587 25007,1587 25105,1587 25201,1613 25286,1662 25371,1711 25442,1782 25491,1867 25540,1952 25566,2048 25566,2146 L 25566,2147 Z"/>
        <path fill="none" stroke="rgb(45,212,191)" d="M 25566,2147 C 25566,2245 25540,2341 25491,2426 25442,2511 25371,2582 25286,2631 25201,2680 25105,2706 25007,2706 24908,2706 24812,2680 24727,2631 24642,2582 24571,2511 24522,2426 24473,2341 24447,2245 24447,2147 24447,2048 24473,1952 24522,1867 24571,1782 24642,1711 24727,1662 24812,1613 24908,1587 25007,1587 25105,1587 25201,1613 25286,1662 25371,1711 25442,1782 25491,1867 25540,1952 25566,2048 25566,2146 L 25566,2147 Z"/>
       </g>
      </g>
      <g class="com.sun.star.drawing.CustomShape">
       <g id="id8">
        <rect class="BoundingBox" stroke="none" fill="none" x="1586" y="8571" width="1122" height="1122"/>
        <path fill="rgb(45,212,191)" stroke="none" d="M 2706,9131 C 2706,9230 2680,9326 2631,9411 2582,9496 2511,9567 2426,9616 2341,9665 2245,9691 2147,9691 2048,9691 1952,9665 1867,9616 1782,9567 1711,9496 1662,9411 1613,9326 1587,9230 1587,9131 1587,9033 1613,8937 1662,8852 1711,8767 1782,8696 1867,8647 1952,8598 2048,8572 2147,8572 2245,8572 2341,8598 2426,8647 2511,8696 2582,8767 2631,8852 2680,8937 2706,9033 2706,9131 L 2706,9131 Z"/>
        <path fill="none" stroke="rgb(45,212,191)" d="M 2706,9131 C 2706,9230 2680,9326 2631,9411 2582,9496 2511,9567 2426,9616 2341,9665 2245,9691 2147,9691 2048,9691 1952,9665 1867,9616 1782,9567 1711,9496 1662,9411 1613,9326 1587,9230 1587,9131 1587,9033 1613,8937 1662,8852 1711,8767 1782,8696 1867,8647 1952,8598 2048,8572 2147,8572 2245,8572 2341,8598 2426,8647 2511,8696 2582,8767 2631,8852 2680,8937 2706,9033 2706,9131 Z"/>
       </g>
      </g>
      <g class="com.sun.star.drawing.CustomShape">
       <g id="id9">
        <rect class="BoundingBox" stroke="none" fill="none" x="23963" y="12851" width="1122" height="1122"/>
        <path fill="none" stroke="rgb(45,212,191)" d="M 25083,13412 C 25083,13510 25057,13606 25008,13691 24959,13776 24888,13847 24803,13896 24718,13945 24622,13971 24524,13971 24425,13971 24329,13945 24244,13896 24159,13847 24088,13776 24039,13691 23990,13606 23964,13510 23964,13412 23964,13313 23990,13217 24039,13132 24088,13047 24159,12976 24244,12927 24329,12878 24425,12852 24524,12852 24622,12852 24718,12878 24803,12927 24888,12976 24959,13047 25008,13132 25057,13217 25083,13313 25083,13412 Z"/>
       </g>
      </g>
      <g class="com.sun.star.drawing.CustomShape">
       <g id="id10">
        <rect class="BoundingBox" stroke="none" fill="none" x="4126" y="2221" width="1122" height="1122"/>
        <path fill="none" stroke="rgb(45,212,191)" d="M 5246,2782 C 5246,2880 5220,2976 5171,3061 5122,3146 5051,3217 4966,3266 4881,3315 4785,3341 4687,3341 4588,3341 4492,3315 4407,3266 4322,3217 4251,3146 4202,3061 4153,2976 4127,2880 4127,2782 4127,2683 4153,2587 4202,2502 4251,2417 4322,2346 4407,2297 4492,2248 4588,2222 4687,2222 4785,2222 4881,2248 4966,2297 5051,2346 5122,2417 5171,2502 5220,2587 5246,2683 5246,2782 Z"/>
       </g>
      </g>
     </g>
    </g>
   </g>
  </g>
 </g>
</svg>